<svg width="55" height="55" viewBox="0 0 55 55" fill="none" xmlns="http://www.w3.org/2000/svg">
<path d="M47.2656 40.3906L49.8008 42.0836C48.3852 44.2437 46.6627 46.1862 44.6875 47.85V42.1094L47.2656 40.3906Z" fill="#C74841"/>
<path d="M24.0625 15.4688V18.9062H22.3438L21.4844 17.1875L24.0625 15.4688Z" fill="#C74841"/>
<path d="M49.8438 23.2031L50.7031 22.3438L49.8438 19.7656L45.5469 16.3281V15.4688H42.1094L38.6719 16.3281H35.2344L34.375 14.6094H30.0781L28.3594 17.1875H31.7969L32.6562 18.9062L30.0781 19.7656H28.3594L24.0625 24.0625V26.6406H24.9219L28.3594 23.2031H30.0781L31.7969 26.6406H34.375V28.3594H33.5156H30.0781L29.2188 27.5H27.5L22.3438 31.7969V35.2344L24.0625 36.9531H28.3594V37.8125L29.2188 39.5312V42.1094L30.0781 46.4062H33.5156L36.0938 42.1094V41.25L35.2344 39.5312L37.8125 37.8125V36.0938H33.5156V30.9375H35.2344L36.0938 33.5156H38.6719V30.9375L37.8125 29.2188L41.25 30.0781V33.5156H42.1094L44.6875 30.9375L45.5469 34.375V37.8125H47.2656V34.375H48.9844V33.5156L47.2656 31.7969H48.125L48.9844 29.2188V27.5H50.7031V24.9219L49.8438 24.0625V23.2031Z" fill="#C74841"/>
<path d="M15.4688 11.1719L12.0312 12.0312L6.875 16.3281L3.4375 19.7656V21.4844H5.15625V29.2188L6.94375 30.4047L7.73438 30.9375L10.3125 34.375V37.8125L12.0312 38.6719L12.8906 43.8281H14.6094L17.1875 40.3906V38.6719L18.0469 36.9531L15.4688 34.375L13.75 31.7969H11.1719H10.3125L9.45312 29.2188H7.73438V27.5H10.3125V25.7812L11.1719 24.9219L12.0312 24.0625V22.3438L14.6094 21.4844V20.625L13.75 18.9062H11.1719L10.3125 20.625L8.59375 19.7656L9.45312 18.0469L10.3125 17.1875L11.1719 16.3281L12.0312 17.1875L13.75 16.3281V14.6094L12.8906 13.75H14.6094H16.3281V16.3281V18.0469H18.0469V16.3281L20.625 15.4688L23.2031 12.0312V11.1719L24.0625 10.3125V8.59375L15.4688 11.1719Z" fill="#C74841"/>
<path d="M0.859375 27.4998C0.860887 23.3518 1.83102 19.2613 3.6925 15.5544C5.55397 11.8475 8.25536 8.62641 11.5815 6.14781C14.9076 3.66922 18.7666 2.00158 22.851 1.27771C26.9354 0.553836 31.1325 0.793742 35.1078 1.97832C39.0832 3.16289 42.727 5.2594 45.749 8.10086C48.771 10.9423 51.0878 14.4502 52.5147 18.3451C53.9417 22.24 54.4394 26.4144 53.9682 30.5356C53.497 34.6568 52.07 38.6111 49.8008 42.0834L47.2656 40.3905L44.6875 42.1092V47.8498C40.8078 51.1258 36.0727 53.2248 31.0399 53.8996C26.0071 54.5743 20.8863 53.7966 16.2808 51.6582C11.6752 49.5198 7.77671 46.1096 5.04452 41.8295C2.31233 37.5494 0.860266 32.5777 0.859375 27.4998ZM20.625 15.4686L23.2031 12.0311V11.1717L24.0625 10.3123V8.59359L15.4688 11.1717L12.0312 12.0311L6.875 16.328L3.4375 19.7655V21.4842H5.15625V29.2186L6.94375 30.4045L7.73438 30.9373L10.3125 34.3748V37.8123L12.0312 38.6717L12.8906 43.828H14.6094L17.1875 40.3905V38.6717L18.0469 36.953L15.4688 34.3748L13.75 31.7967H10.3125L9.45312 29.2186H7.73438V27.4998H10.3125V25.7811L11.1719 24.9217L12.0312 24.0623V22.3436L14.6094 21.4842V20.6248L13.75 18.9061H11.1719L10.3125 20.6248L8.59375 19.7655L9.45312 18.0467L10.3125 17.1873L11.1719 16.328L12.0312 17.1873L13.75 16.328V14.6092L12.8906 13.7498H16.3281V18.0467H18.0469V16.328L20.625 15.4686ZM21.4844 17.1873L22.3438 18.9061H24.0625V15.4686L21.4844 17.1873ZM37.8125 36.0936H33.5156V30.9373H35.2344L36.0938 33.5155H38.6719V30.9373L37.8125 29.2186L41.25 30.078V33.5155H42.1094L44.6875 30.9373L45.5469 34.3748V37.8123H47.2656V34.3748H48.9844V33.5155L47.2656 31.7967H48.125L48.9844 29.2186V27.4998H50.7031V24.9217L49.8438 24.0623V23.203L50.7031 22.3436L49.8438 19.7655L45.5469 16.328V15.4686H42.1094L38.6719 16.328H35.2344L34.375 14.6092H30.0781L28.3594 17.1873H31.7969L32.6562 18.9061L30.0781 19.7655H28.3594L24.0625 24.0623V26.6405H24.9219L28.3594 23.203H30.0781L31.7969 26.6405H34.375V28.3592H30.0781L29.2188 27.4998H27.5L22.3438 31.7967V35.2342L24.0625 36.953H28.3594V37.8123L29.2188 39.5311V42.1092L30.0781 46.4061H33.5156L36.0938 42.1092V41.2498L35.2344 39.5311L37.8125 37.8123V36.0936Z" fill="#34C1AD"/>
<path d="M44.6875 43.4758V47.85C46.6627 46.1862 48.3852 44.2437 49.8008 42.0836L48.7111 41.3557C47.4331 42.1764 46.087 42.8857 44.6875 43.4758Z" fill="#AD3A34"/>
<path d="M33.5156 46.4062L34.0364 45.5383C32.6248 45.5206 31.2168 45.3916 29.8255 45.1524L30.0781 46.4062H33.5156Z" fill="#AD3A34"/>
<path d="M3.4375 19.7656V21.4844H5.15625V29.2187L6.94375 30.4047L7.73438 30.9375L10.3125 34.375V37.8125L12.0312 38.6719L12.8906 43.8281H14.6094L17.1875 40.3906V39.2545C14.7099 37.1606 12.6336 34.6336 11.0602 31.7969H10.3125L9.45312 29.2187H7.73438V27.5H9.15922C7.83148 23.6188 7.42402 19.482 7.96898 15.4163L6.875 16.3281L3.4375 19.7656Z" fill="#AD3A34"/>
<path d="M7.73438 29.2188H9.45312L10.3125 31.7969H11.0602C10.3003 30.4238 9.66419 28.9858 9.15922 27.5H7.73438V29.2188Z" fill="#21ABAB"/>
<path d="M34.375 45.5469C34.2616 45.5469 34.1498 45.54 34.0364 45.5383L33.5156 46.4062H30.0781L29.8272 45.1524C25.1634 44.3487 20.7994 42.3124 17.1875 39.2545V40.3906L14.6094 43.8281H12.8906L12.0313 38.6719L10.3125 37.8125V34.375L7.73438 30.9375L6.94376 30.4047L5.15626 29.2188V21.4844H3.43751V19.7656L6.87501 16.3281L7.96899 15.4163C8.35562 12.4562 9.24037 9.58286 10.5858 6.91797C7.84359 9.13962 5.57015 11.884 3.89752 14.9917C2.22489 18.0994 1.1864 21.5084 0.842386 25.0208C0.498367 28.5332 0.855672 32.079 1.89355 35.4522C2.93142 38.8253 4.62918 41.9586 6.8882 44.6701C9.14723 47.3816 11.9225 49.6173 15.0528 51.2471C18.1831 52.877 21.6061 53.8687 25.1229 54.1645C28.6397 54.4604 32.1802 54.0545 35.5388 52.9705C38.8975 51.8865 42.0072 50.146 44.6875 47.85V43.4758C41.4225 44.8469 37.9162 45.551 34.375 45.5469Z" fill="#21ABAB"/>
<path d="M49.8008 42.0836C50.34 41.2505 50.832 40.3877 51.2746 39.4995C50.4573 40.168 49.6013 40.7879 48.7111 41.3557L49.8008 42.0836Z" fill="#21ABAB"/>
<path d="M36.6867 8.59375H31.7969V6.01562C34.9336 6.05859 36.2141 7.66562 36.6867 8.59375Z" fill="#96E0FF"/>
<path d="M17.4023 6.59141L14.3945 0.859375H17.4023L23.8563 6.31641C21.7766 6.42812 19.5422 6.54844 17.4023 6.66875V6.59141Z" fill="#D4D4D4"/>
<path d="M31.7969 8.59375H36.6867C36.8022 8.79656 36.8917 9.01311 36.9531 9.23828C36.9531 9.23828 36.9531 11.1719 33.9453 11.1719H27.6031L17.9781 18.0469H13.9648L19.5852 11.1719H4.90703C4.24033 11.2073 3.58174 11.0122 3.04185 10.6195C2.50197 10.2267 2.11368 9.66009 1.94219 9.01484L0.859375 3.4375H3.11094L6.875 7.30469C6.875 7.30469 11.8336 6.98672 17.4023 6.66875C19.5422 6.54844 21.7766 6.42812 23.8563 6.31641C27.2766 6.14453 30.2586 6.01562 31.6852 6.01562H31.7969V8.59375Z" fill="#E3E3E3"/>
<path d="M9.96875 13.75H12.8906H14.6094H16.3281H17.007L16.3281 14.5802V15.1559L19.5852 11.1719H15.4688L12.0312 12.0312L9.96875 13.75Z" fill="#AD3A34"/>
<path d="M12.7918 18.9062L11.3867 20.625H14.6094L13.75 18.9062H12.7918Z" fill="#AD3A34"/>
<path d="M12.0313 12.0312L15.4688 11.1719H6.45823C5.81522 11.9956 5.22123 12.8565 4.67932 13.75H9.96877L12.0313 12.0312Z" fill="#21ABAB"/>
<path d="M17.9781 18.0469H13.9649L16.3281 15.1559V14.5802L12.7918 18.9063H13.75L14.6094 20.625H15.4L25.025 13.75H31.3672C34.375 13.75 34.375 11.8164 34.375 11.8164C34.3136 11.5912 34.2241 11.3747 34.1086 11.1719V11.165C34.0536 11.165 34.0055 11.1719 33.9488 11.1719H27.6031L18.0469 17.9979V18.0469H17.9781Z" fill="#21ABAB"/>
<path d="M19.8258 5.15625C19.5428 5.1562 19.2642 5.08628 19.0148 4.95271C18.7653 4.81913 18.5527 4.62603 18.3958 4.39055L16.042 0.859375H14.3945L17.4023 6.59141V6.66875C19.5422 6.54844 21.7766 6.42812 23.8563 6.31641L22.4838 5.15625H19.8258Z" fill="#BFBFBF"/>
<path d="M5.45016 10.3125C4.8753 10.3124 4.31696 10.1203 3.86386 9.76649C3.41075 9.41272 3.08887 8.91767 2.94937 8.36L1.71875 3.4375H0.859375L1.94219 9.01484C2.11368 9.66009 2.50197 10.2267 3.04185 10.6195C3.58174 11.0122 4.24033 11.2073 4.90703 11.1719H19.4795L20.625 10.3125H5.45016Z" fill="#BFBFBF"/>
<path d="M35.2344 10.3125H28.3594L27.5 11.1719L27.5155 11.2346L27.6014 11.1719H33.9453C36.9531 11.1719 36.9531 9.23827 36.9531 9.23827C36.9531 9.23827 36.9342 9.16093 36.8887 9.03632C36.7914 9.40123 36.5767 9.72396 36.2777 9.95463C35.9787 10.1853 35.612 10.3111 35.2344 10.3125Z" fill="#BFBFBF"/>
<path d="M33.5156 7.73436H36.0937C35.1991 6.7674 33.9702 6.17691 32.6562 6.08264V6.87499C32.6562 7.10291 32.7468 7.32149 32.908 7.48265C33.0691 7.64382 33.2877 7.73436 33.5156 7.73436Z" fill="#B3F5FF"/>
</svg>
