<svg width="80" height="80" viewBox="0 0 80 80" fill="none" xmlns="http://www.w3.org/2000/svg">
<path d="M33.125 55.2187C31.025 55.8 26.5125 56.9375 22.85 57.85C21.1757 58.2692 19.6384 59.1146 18.3876 60.3041C17.1369 61.4935 16.2153 62.9864 15.7125 64.6375L11.05 80H71.1063L66.9438 64.6187C66.4922 62.9641 65.6226 61.4535 64.4186 60.232C63.2146 59.0105 61.7167 58.1192 60.0688 57.6438L50.4938 54.8562L33.125 55.2187Z" fill="#46407C"/>
<path d="M34.3187 45.925L33.125 55.2187C33.125 55.2187 43.8375 65.9562 50.5062 54.8562C47.2437 45.925 49.8812 40.4812 49.8812 40.4812L49.425 35.1687L40 36.25L34.3187 45.925Z" fill="#AA4628"/>
<path d="M46.7375 38.6938C46.7375 38.4438 49.5125 36.8187 49.55 36.5812L49.4312 35.1813L40 36.25L34.3188 45.925L33.4688 52.45C36.1563 52.6437 39.575 51.2 40.85 50.575C45 48.525 46.3625 44.7 46.7375 38.6938Z" fill="#892E1D"/>
<path d="M28.125 46.25C32.5 50.8375 38.8688 48.8437 41.075 47.5375C44.2813 45.6625 49.4063 41.3375 50.4938 35.1813C51.5813 29.025 51.5813 23.8375 47.2313 18.0438C42.8813 12.25 26.1 13.4438 25.5063 14.4188C21.0563 21.7563 23.7813 41.6625 28.125 46.25Z" fill="#AA4628"/>
<path d="M59.375 26.25C59.375 25.5738 59.1557 24.9159 58.75 24.375C59.22 23.7607 59.4429 22.9926 59.3746 22.2221C59.3063 21.4516 58.9519 20.7346 58.3812 20.2125C58.6247 19.7636 58.7515 19.2607 58.75 18.75C58.7485 18.2227 58.6137 17.7043 58.358 17.2431C58.1023 16.782 57.734 16.393 57.2875 16.1125C57.4498 15.6835 57.5157 15.224 57.4804 14.7667C57.4452 14.3094 57.3097 13.8655 57.0837 13.4664C56.8576 13.0673 56.5464 12.7229 56.1723 12.4576C55.7981 12.1923 55.3702 12.0126 54.9187 11.9312C54.9711 11.7079 54.9984 11.4794 55 11.25C55 10.4212 54.6708 9.62634 54.0847 9.04029C53.4987 8.45424 52.7038 8.125 51.875 8.125C51.6652 8.12699 51.456 8.14791 51.25 8.1875C51.25 8.1875 51.25 8.15 51.25 8.125C51.2466 7.52421 51.07 6.93715 50.7415 6.43413C50.413 5.93111 49.9464 5.53344 49.3977 5.28876C48.849 5.04408 48.2414 4.96277 47.6477 5.05454C47.0539 5.14632 46.4992 5.40731 46.05 5.80625C45.8563 5.27975 45.5244 4.81511 45.0892 4.46109C44.654 4.10708 44.1315 3.87675 43.5766 3.79428C43.0217 3.71181 42.4548 3.78024 41.9355 3.99239C41.4161 4.20454 40.9635 4.55259 40.625 5C40.3074 4.57825 39.8882 4.24383 39.4064 4.02795C38.9247 3.81206 38.3961 3.72175 37.8699 3.76543C37.3438 3.80912 36.8373 3.98539 36.3978 4.27778C35.9582 4.57017 35.5999 4.96915 35.3562 5.4375C34.8815 5.15303 34.3397 4.99973 33.7863 4.9933C33.2329 4.98686 32.6877 5.12751 32.2065 5.40086C31.7253 5.67421 31.3253 6.07046 31.0474 6.54909C30.7696 7.02772 30.6238 7.57156 30.625 8.125V8.125C30.1607 7.77679 29.6086 7.56474 29.0306 7.51262C28.4526 7.4605 27.8715 7.57037 27.3525 7.82991C26.8334 8.08945 26.3968 8.48841 26.0917 8.98209C25.7866 9.47576 25.625 10.0446 25.625 10.625C25.625 10.7187 25.625 10.8125 25.625 10.9062C25.2334 10.7236 24.8071 10.6276 24.375 10.625C23.7499 10.6272 23.1398 10.8169 22.6236 11.1694C22.1074 11.522 21.7088 12.0213 21.4794 12.6027C21.2499 13.1842 21.2 13.8211 21.3363 14.4312C21.4726 15.0413 21.7887 15.5964 22.2437 16.025C21.6673 16.3539 21.2105 16.8578 20.9396 17.4637C20.6686 18.0696 20.5977 18.746 20.7369 19.395C20.8762 20.0439 21.2184 20.6317 21.7141 21.0731C22.2098 21.5145 22.8331 21.7866 23.4937 21.85C23.5784 21.8648 23.6641 21.8732 23.75 21.875C26.8938 21.8703 30.0253 21.482 33.075 20.7187C34.5693 20.3406 36.1523 20.5617 37.4859 21.3348C38.8195 22.1078 39.798 23.3716 40.2125 24.8562C41.8726 30.8845 45.2311 36.3083 49.8875 40.4812C50.381 40.3499 50.8588 40.1655 51.3125 39.9312C51.4977 39.9702 51.6859 39.9933 51.875 40C52.7038 40 53.4987 39.6708 54.0847 39.0847C54.6708 38.4987 55 37.7038 55 36.875C55 36.875 55 36.8312 55 36.8125C55.444 36.7217 55.8629 36.5354 56.2277 36.2666C56.5925 35.9977 56.8945 35.6528 57.1127 35.2556C57.3309 34.8584 57.4601 34.4186 57.4914 33.9665C57.5226 33.5144 57.4552 33.0609 57.2937 32.6375C57.7391 32.3562 58.1061 31.9669 58.3607 31.5058C58.6153 31.0447 58.7492 30.5267 58.75 30C58.7476 29.4882 58.6165 28.9853 58.3687 28.5375C58.6848 28.246 58.9373 27.8923 59.1105 27.4987C59.2836 27.1051 59.3737 26.68 59.375 26.25V26.25Z" fill="#3B0B1B"/>
<path d="M34.55 32.2687L42.5375 28.75C42.5752 28.7334 42.6159 28.7245 42.6571 28.7237C42.6983 28.723 42.7392 28.7303 42.7776 28.7454C42.8159 28.7605 42.8509 28.7831 42.8805 28.8117C42.9101 28.8404 42.9337 28.8747 42.95 28.9125C42.9808 28.9805 42.9858 29.0573 42.9639 29.1287C42.942 29.2001 42.8949 29.261 42.8312 29.3L35.45 33.9812C35.232 34.118 34.9687 34.1626 34.7178 34.1051C34.467 34.0477 34.2493 33.893 34.1125 33.675C33.9758 33.457 33.9312 33.1937 33.9886 32.9428C34.0461 32.692 34.2008 32.4742 34.4188 32.3375L34.55 32.2687Z" fill="white"/>
<path d="M38.125 39.2563L45.725 33.8188C45.7906 33.7795 45.8681 33.765 45.9434 33.7781C46.0187 33.7912 46.0868 33.8309 46.1353 33.89C46.1837 33.9491 46.2094 34.0236 46.2075 34.1C46.2056 34.1764 46.1763 34.2496 46.125 34.3063L39.375 40.7438C39.2907 40.854 39.1837 40.9448 39.0612 41.0101C38.9387 41.0753 38.8037 41.1135 38.6652 41.1221C38.5267 41.1306 38.388 41.1093 38.2584 41.0596C38.1288 41.0098 38.0115 40.9329 37.9143 40.8338C37.8171 40.7348 37.7422 40.616 37.6949 40.4856C37.6476 40.3551 37.6288 40.2161 37.6399 40.0777C37.651 39.9394 37.6917 39.8051 37.7592 39.6838C37.8267 39.5626 37.9195 39.4573 38.0312 39.375L38.125 39.2563Z" fill="white"/>
<path d="M44.1062 34.4563C44.1062 34.4563 48.2875 36.025 48.4812 32.2313C48.75 26.875 43.375 24.225 41.875 30.0813" fill="#AA4628"/>
<path d="M23.125 33.75L35.625 31.875L40 40L32.4312 49.1937L26.25 46.875L23.125 40V33.75Z" fill="#21ABAB"/>
<path d="M46.1188 32.6313C45.9938 32.2438 45.9063 31.8875 45.8125 31.5938C45.7173 31.3212 45.5981 31.0577 45.4563 30.8063C45.3074 30.5521 45.1336 30.3135 44.9375 30.0938C44.8375 29.9625 44.7 29.8563 44.5813 29.7125C44.4331 29.5771 44.2952 29.4309 44.1688 29.275V29.2438C44.1453 29.2144 44.1279 29.1807 44.1177 29.1445C44.1075 29.1083 44.1047 29.0705 44.1093 29.0332C44.114 28.9959 44.1261 28.9599 44.1449 28.9274C44.1637 28.8949 44.1888 28.8664 44.2188 28.8438C44.2584 28.8125 44.3061 28.793 44.3563 28.7875C44.5847 28.7625 44.8153 28.7625 45.0438 28.7875C45.2768 28.8329 45.5034 28.9063 45.7188 29.0063C46.1692 29.2237 46.5454 29.5694 46.8 30C47.0696 30.44 47.1922 30.9544 47.15 31.4688C47.125 31.9569 46.9305 32.4211 46.6 32.7813C46.5749 32.8073 46.5448 32.8281 46.5115 32.8423C46.4783 32.8564 46.4424 32.8638 46.4063 32.8638C46.3701 32.8638 46.3343 32.8564 46.301 32.8423C46.2677 32.8281 46.2376 32.8073 46.2125 32.7813C46.1764 32.7499 46.1503 32.7086 46.1375 32.6625L46.1188 32.6313Z" fill="#892E1D"/>
<path opacity="0.4" d="M23.125 40L31.875 36.3438L23.975 41.875L23.125 40Z" fill="white"/>
<path opacity="0.4" d="M26.25 46.875L33.3188 39.8625L28.3375 47.6563L26.25 46.875Z" fill="white"/>
</svg>
