<svg width="80" height="80" viewBox="0 0 80 80" fill="none" xmlns="http://www.w3.org/2000/svg">
<path d="M53.125 74.375H76.25C77.625 74.375 78.75 73.25 78.75 71.875V28.0625L72.5 18.75H56.875L50.625 28.0625V71.875C50.625 73.25 51.75 74.375 53.125 74.375Z" fill="#A2BCCB"/>
<path d="M44.5625 55.5625L44.125 55.75L43.75 55.875C43.5 55.9375 43.25 56.0625 43 56.125C42.5 56.25 42 56.375 41.5 56.5C40.5 56.75 39.5 56.9375 38.5 57.0625C36.5 57.3125 34.4375 57.4375 32.4375 57.4375C31.4375 57.375 30.4375 57.375 29.4375 57.25L27.9375 57.125L26.25 56.875C25.25 56.75 24.25 56.5 23.25 56.3125C22.25 56.125 21.3125 55.8125 20.3125 55.5625C18.3125 55.0625 17.0625 53 17.5625 50.9375C18.0625 48.875 20.125 47.6875 22.1875 48.1875C22.3125 48.1875 22.375 48.25 22.5 48.25L22.75 48.3125C23.5625 48.5625 24.375 48.875 25.1875 49.125C26 49.375 26.8125 49.625 27.6875 49.8125L28.9375 50.125L30.1875 50.375C31 50.5625 31.875 50.625 32.75 50.75C34.4375 50.9375 36.1875 50.9375 37.875 50.875C38.75 50.8125 39.5625 50.75 40.375 50.625C40.8125 50.5625 41.1875 50.5 41.5625 50.4375C41.75 50.375 41.9375 50.375 42.125 50.3125L42.625 50.1875L42.9375 50.125C44.4375 49.75 45.9375 50.6875 46.3125 52.1875C46.625 53.625 45.875 55.0625 44.5625 55.5625Z" fill="#FFC298"/>
<path d="M41.5 62.875L40.6875 62.9375L39.9375 63C39.4375 63 39 63.0625 38.5 63.0625C37.5625 63.125 36.625 63.125 35.6875 63.0625C33.8125 63.0625 31.9375 62.9375 30.0625 62.8125C28.1875 62.6875 26.375 62.5 24.5 62.25C22.6875 62 20.8125 61.75 19 61.4375C16.9375 61.125 15.5625 59.1875 15.875 57.125C16.1875 55.0625 18.125 53.6875 20.1875 54C20.3125 54 20.375 54.0625 20.5 54.0625H20.5625C22.25 54.5 23.9375 54.875 25.6875 55.25C27.375 55.625 29.125 55.9375 30.8125 56.1875C32.5625 56.4375 34.25 56.6875 36 56.875C36.875 56.9375 37.6875 57 38.5625 57.0625C39 57.0625 39.4375 57.125 39.8125 57.125H40.4375H41H41.25C42.8125 57.125 44.0625 58.375 44.0625 59.9375C44 61.5625 42.875 62.75 41.5 62.875Z" fill="#FFC298"/>
<path d="M34.125 69.1875C32.5625 68.5 30.875 67.75 29.25 67.0625C27.625 66.375 25.9375 65.6875 24.3125 65.0625C21 63.75 17.625 62.4375 14.3125 61.25C12.875 60.6875 12.125 59.0625 12.625 57.625C13.1875 56.1875 14.8125 55.4375 16.25 55.9375C16.3125 55.9375 16.375 56 16.4375 56C19.75 57.5 23 59 26.3125 60.5625C27.9375 61.3125 29.5625 62.125 31.1875 62.9375C32.8125 63.75 34.4375 64.5625 36.0625 65.4375C37.0625 66 37.4375 67.25 36.9375 68.3125C36.375 69.3125 35.1875 69.6875 34.125 69.1875Z" fill="#FFC298"/>
<path d="M45.9375 52.25L45.4375 52.375L45 52.4375C44.75 52.5 44.5 52.5625 44.1875 52.5625C43.6875 52.625 43.125 52.6875 42.625 52.75C41.625 52.875 40.5625 52.9375 39.5625 52.9375C37.5 52.9375 35.5 52.8125 33.5 52.5625C32.5 52.375 31.5 52.25 30.5 52L29 51.6875L27.5625 51.3125C26.5625 51.0625 25.625 50.6875 24.6875 50.375C23.75 50.0625 22.8125 49.625 21.875 49.25C19.9375 48.5 18.9375 46.3125 19.75 44.375C20.5 42.4375 22.6875 41.4375 24.625 42.25C24.6875 42.3125 24.8125 42.3125 24.875 42.375L25.125 42.5C25.875 42.875 26.625 43.25 27.4375 43.625C28.25 43.9375 29 44.3125 29.8125 44.625L31 45.0625L32.25 45.4375C33.0625 45.6875 33.875 45.875 34.75 46.125C36.4375 46.5 38.125 46.75 39.8125 46.875C40.6875 46.9375 41.5 46.9375 42.3125 46.9375C42.75 46.9375 43.125 46.9375 43.5625 46.875C43.75 46.875 43.9375 46.875 44.1875 46.8125L44.6875 46.75L45 46.6875C46.5625 46.5 47.9375 47.625 48.125 49.1875C48.25 50.625 47.3125 51.9375 45.9375 52.25Z" fill="#FFC298"/>
<path d="M31.6875 33.0625L25.8125 36.1875L22.875 37.75L22.5 37.9375C22.4375 38 22.375 38 22.3125 38.0625C22.25 38.125 22.1875 38.125 22.1875 38.125C22.1875 38.1875 22.25 38.25 22.25 38.3125C22.3125 38.375 22.3125 38.4375 22.375 38.4375C22.4375 38.4375 22.375 38.5 22.3125 38.5625L22.25 38.75L22.0625 39.0625C21 40.875 19.8125 42.8125 18.6875 44.6875L17 47.5625L16.1875 49L15.8125 49.6875L15.625 50.125L15.5625 50.3125C15.5 50.375 15.625 50.25 15.625 50.25L15.75 50.125C13.0625 53.5 8.18749 54.0625 4.81249 51.375C1.43749 48.6875 0.874991 43.8125 3.56249 40.4375L3.74999 40.125C3.81249 40.0625 3.93749 39.9375 3.93749 39.9375L4.12499 39.8125L4.49999 39.5625L5.18749 39.0625L6.56249 38.0625L9.37499 36.125C11.25 34.8125 13.125 33.5625 15.125 32.25L15.5 32L15.6875 31.875C15.75 31.8125 15.8125 31.8125 15.9375 31.6875C16.375 31.375 16.875 31.0625 17.375 30.8125C17.875 30.5625 18.375 30.375 18.9375 30.25C19.125 30.1875 19.125 30.1875 19.1875 30.1875C19.25 30.1875 19.3125 30.1875 19.375 30.125L19.75 30.0625L22.9375 29.3125L29.375 27.8125L29.5 27.75C31.0625 27.375 32.5625 28.375 32.9375 29.875C33.375 31.1875 32.75 32.5 31.6875 33.0625Z" fill="#FFC298"/>
<path d="M24.5 36.875C22.5625 38.375 22.0625 41.0625 26.8125 43.3125C31.5625 45.5625 19.8125 62.8125 14.125 61.0625C8.43748 59.3125 -3.06252 56.25 0.999978 44.5C4.93748 33.1875 24.5 36.875 24.5 36.875Z" fill="#FFC298"/>
<path d="M29.0625 51.4375C29.0625 51.4375 30.5625 52.375 32.9375 52.5" stroke="#E1927A" stroke-width="2.2567" stroke-miterlimit="10" stroke-linecap="round"/>
<path d="M46.0625 52.25C46.0625 52.25 41.1875 53.375 36.0625 52.6875" stroke="#E1927A" stroke-width="2.2567" stroke-miterlimit="10" stroke-linecap="round"/>
<path d="M27.875 57.1875C28 57.1875 36.3125 58.0625 40.3125 56.75" stroke="#E1927A" stroke-width="2.2567" stroke-miterlimit="10" stroke-linecap="round"/>
<path d="M24.8125 61.5C25.0625 61.5625 29.75 63.0625 33.3125 63.0625" stroke="#E1927A" stroke-width="2.2567" stroke-miterlimit="10" stroke-linecap="round"/>
<path d="M66.875 10H46.25L39.375 16.875" stroke="#A2BCCB" stroke-width="6" stroke-miterlimit="10"/>
<path d="M73.125 37.5H50.625V63.75H73.125V37.5Z" fill="white"/>
<path d="M71.25 14.375H58.75V18.75H71.25V14.375Z" fill="#46407C"/>
<path d="M68.75 5H61.25V14.375H68.75V5Z" fill="#46407C"/>
<path d="M50.625 50.625H68.125" stroke="#21ABAB" stroke-width="8" stroke-miterlimit="10"/>
<path d="M59.375 59.375V41.875" stroke="#21ABAB" stroke-width="8" stroke-miterlimit="10"/>
<path d="M41.9375 33.625C40.5 35.0625 38.125 35.0625 36.625 33.625C35.4375 32.4375 35.1875 30.625 36 29.1875L39.3125 23.125L42.625 29.1875C43.375 30.6875 43.125 32.5 41.9375 33.625Z" fill="#46407C"/>
<path d="M53.125 28.125H73.125" stroke="white" stroke-width="2" stroke-miterlimit="10" stroke-linecap="round"/>
</svg>
