<svg width="80" height="80" viewBox="0 0 80 80" fill="none" xmlns="http://www.w3.org/2000/svg">
<path d="M65.35 18.0407L65 20.6636C65 20.6636 68.0813 23.735 70 20.5653C69.0625 18.0407 69.825 16.505 69.825 16.505L69.6938 15L66.9812 15.3071L65.35 18.0407Z" fill="#FFC298"/>
<path d="M67.1018 18.7525C67.7762 18.3764 68.3658 17.8671 68.8342 17.2561C69.3026 16.645 69.6399 15.9451 69.8253 15.1997C70.1398 13.4326 70.1398 11.9403 68.8818 10.2732C67.6238 8.60604 62.7681 8.9557 62.592 9.23668C61.334 11.3409 62.3089 16.8231 63.4033 18.2779C64.3657 19.5517 67.1018 18.7525 67.1018 18.7525Z" fill="#FFC298"/>
<path d="M60.0814 7.68878C59.9188 8.29252 60.0017 8.93328 60.3134 9.48007C60.625 10.0268 61.1418 10.4383 61.758 10.6304C63.9617 11.4132 66.3433 9.83539 66.3433 9.83539C66.4991 12.2068 67.6223 14.4228 69.4679 16C72.186 15.3334 73.615 8.93026 69.0297 6.73473C67.8088 6.05747 66.3711 5.83834 64.9927 6.11939C63.6143 6.40045 62.3922 7.16189 61.5611 8.25754L60.0814 7.68878Z" fill="#892E1D"/>
<path d="M67.8796 16C67.8796 16 69 15.5573 69 14.3149C69 13.0725 68.4398 12.587 67 13.401" fill="#FFC298"/>
<path d="M62 32.3053C61.9355 35.1884 61.8129 38.0779 61.7226 40.9673L61.5419 45.2984C61.486 46.74 61.4172 48.1836 61.3355 49.6294C61.3076 49.9976 61.139 50.3423 60.8628 50.5959C60.5866 50.8494 60.2229 50.9935 59.8429 50.9998C59.463 51.0061 59.0944 50.8741 58.8095 50.6298C58.5246 50.3855 58.344 50.0466 58.3032 49.6796C58.1677 48.238 58.0452 46.8026 57.9355 45.3611L57.6065 41.0802C57.4065 38.197 57.1742 35.3138 57 32.4306C57.002 31.8108 57.2468 31.215 57.6848 30.7644C58.1228 30.3137 58.7209 30.042 59.3577 30.0045C59.9945 29.967 60.6221 30.1665 61.113 30.5624C61.6038 30.9583 61.9209 31.521 62 32.136C62 32.1987 62 32.2677 62 32.3053Z" fill="#FFC298"/>
<path d="M75 44H60V45H75V44Z" fill="#1D7589"/>
<path d="M60 45L61.6681 76.3698L66.3474 77L67.2907 50.5518L68.0217 50.6904L68.6526 77L73.3257 76.3698L75 45H60Z" fill="#21ABAB"/>
<path d="M75 29H60V44H75V29Z" fill="#BDE5EC"/>
<path d="M78.9678 32.0928C78.6929 35.0231 78.3284 37.9533 78.0535 40.8836L77.5676 45.2949C77.4099 46.759 77.2373 48.2231 77.0497 49.6871C77.0007 50.0644 76.8107 50.4091 76.5177 50.6522C76.2246 50.8953 75.8504 51.0187 75.47 50.9977C75.0897 50.9767 74.7313 50.8128 74.467 50.5389C74.2026 50.265 74.0518 49.9015 74.0448 49.5212C74.0192 48.0443 74.0043 46.5717 74 45.1034V40.6793C74 37.7363 74 34.7869 74.0384 31.8439C73.9873 31.4887 74.0136 31.1267 74.1157 30.7827C74.2177 30.4387 74.393 30.1208 74.6296 29.8507C74.8661 29.5806 75.1583 29.3648 75.4862 29.218C75.8141 29.0712 76.1698 28.9968 76.5291 29.0001C76.8885 29.0034 77.2428 29.0841 77.568 29.2369C77.8931 29.3896 78.1814 29.6107 78.413 29.885C78.6446 30.1593 78.814 30.4804 78.9098 30.8262C79.0056 31.172 79.0254 31.5344 78.9678 31.8886C78.9678 31.9588 78.9678 32.029 78.9678 32.0928Z" fill="#FFC298"/>
<path d="M64.6458 19H69.3542C69.7907 19 70.2093 19.1931 70.518 19.5368C70.8266 19.8805 71 20.3466 71 20.8327V26H63V20.8327C63 20.3466 63.1734 19.8805 63.482 19.5368C63.7907 19.1931 64.2093 19 64.6458 19V19Z" fill="#BDE5EC"/>
<path d="M65.5027 21H69.5525C72.0582 21 74.4612 21.9435 76.2329 23.6229C78.0046 25.3024 79 27.5802 79 29.9552V33H57V29.0597C57 26.9221 57.8958 24.8721 59.4904 23.3606C61.085 21.8491 63.2477 21 65.5027 21V21Z" fill="#BDE5EC"/>
<path d="M79 80H68V76.7117L73.2371 76L77.9755 77.6441L79 80Z" fill="#1D7589"/>
<path d="M56 80H66V76.7117L61.2328 76L56.9252 77.6441L56 80Z" fill="#1D7589"/>
<path d="M6 78H8.95711L11 58.7317L6.44582 56L6 78Z" fill="#AA4628"/>
<path d="M20.5013 31.2859L20.9999 48.8586C21.0039 49.1404 20.9066 49.4135 20.727 49.6239C20.5475 49.8342 20.299 49.9665 20.0306 49.9944C19.7622 50.0224 19.4935 49.9441 19.2778 49.7749C19.0621 49.6057 18.915 49.3581 18.8657 49.081L16.0323 31.7497C15.9824 31.4452 15.9904 31.1334 16.0558 30.8321C16.1212 30.5308 16.2428 30.2459 16.4136 29.9937C16.5844 29.7415 16.8011 29.5269 17.0512 29.3622C17.3014 29.1975 17.5801 29.0859 17.8716 29.0338C18.163 28.9816 18.4614 28.99 18.7498 29.0583C19.0382 29.1267 19.3108 29.2537 19.5522 29.4322C19.7935 29.6106 19.9989 29.837 20.1565 30.0984C20.3142 30.3598 20.421 30.651 20.4709 30.9556C20.4901 31.0646 20.5002 31.1751 20.5013 31.2859Z" fill="#AA4628"/>
<path d="M1 80H9V77H5.64615L2.42769 78.5325L1 80Z" fill="#BDE5EC"/>
<path d="M21 78H17.4515L15 58.7317L20.4718 56L21 78Z" fill="#AA4628"/>
<path d="M21 64H3C7.62717 57.2424 4.72829 43.553 8.24617 40H18.9959L21 64Z" fill="#BDE5EC"/>
<path d="M9 24C10.6569 24 12 22.6569 12 21C12 19.3431 10.6569 18 9 18C7.34315 18 6 19.3431 6 21C6 22.6569 7.34315 24 9 24Z" fill="#3B0B1B"/>
<path d="M15 17C16.6569 17 18 15.6569 18 14C18 12.3431 16.6569 11 15 11C13.3431 11 12 12.3431 12 14C12 15.6569 13.3431 17 15 17Z" fill="#3B0B1B"/>
<path d="M10 17C11.6569 17 13 15.6569 13 14C13 12.3431 11.6569 11 10 11C8.34315 11 7 12.3431 7 14C7 15.6569 8.34315 17 10 17Z" fill="#3B0B1B"/>
<path d="M7 20C8.65685 20 10 18.6569 10 17C10 15.3431 8.65685 14 7 14C5.34315 14 4 15.3431 4 17C4 18.6569 5.34315 20 7 20Z" fill="#3B0B1B"/>
<path d="M16.1037 15.1104C16.1037 15.1104 17.6471 20.0855 16.6833 21.3623C15.7195 22.6392 10.5879 21.6039 10.5879 21.6039C10.3889 21.0793 10.2535 20.5375 10.1841 19.9877C10.119 19.5851 10.0539 19.102 10.0083 18.5326C9.81294 16.3067 13.1016 11.9528 16.1037 15.1104Z" fill="#AA4628"/>
<path d="M10.6713 25.8058L14 26L13.0098 20.9968L10 18L10.6713 25.8058Z" fill="#AA4628"/>
<path d="M19 40H7.59584L7 30.1518C7 28.5214 7.6316 26.9577 8.75603 25.8041C9.88047 24.6506 11.4058 24.0017 12.9968 24V24C13.7851 24 14.5658 24.1591 15.2941 24.4683C16.0225 24.7774 16.6843 25.2306 17.2417 25.8018C17.7992 26.3731 18.2413 27.0513 18.543 27.7976C18.8447 28.544 19 29.344 19 30.1518V40Z" fill="#21ABAB"/>
<path d="M16 16.1226C15.3394 16.4244 12.9394 15.5745 12.9394 15.5745C13.1196 15.7734 13.2196 16.0339 13.2196 16.3043C13.2196 16.5747 13.1196 16.8352 12.9394 17.0342C12.7288 17.3191 12.4599 17.5542 12.1512 17.7232C11.8426 17.8923 11.5015 17.9913 11.1515 18.0134C11.1515 18.0134 9.42424 19.6148 10.5455 20.3046C11.6667 20.9944 11.6788 23.2363 10.4242 24C9.71814 23.5868 9.12588 22.9995 8.70217 22.2923C8.27846 21.585 8.03697 20.7807 8 19.9535L8.12121 16.5353L9.02424 14.5829L11.1273 13.6652L14.2182 13.4866L15.7455 13L16 16.1226Z" fill="#3B0B1B"/>
<path d="M25 80H17V77H20.3564L23.5712 78.5325L25 80Z" fill="#BDE5EC"/>
<path d="M9.23936 30.7039L7.27558 39.6314L5.64952 37.8181L14.8993 38.344C15.1912 38.344 15.4712 38.4561 15.6776 38.6556C15.884 38.8551 16 39.1257 16 39.4078C16 39.6899 15.884 39.9605 15.6776 40.16C15.4712 40.3595 15.1912 40.4716 14.8993 40.4716L5.64952 40.9975C5.23737 41.0206 4.83259 40.8846 4.52415 40.6194C4.21572 40.3541 4.02888 39.9814 4.0047 39.5831C3.99843 39.5228 3.99843 39.462 4.0047 39.4018V39.1902L4.63011 30.0874C4.67158 29.4951 4.95481 28.9429 5.41751 28.5524C5.64661 28.359 5.91288 28.2112 6.2011 28.1173C6.48933 28.0234 6.79387 27.9853 7.09734 28.0051C7.40081 28.025 7.69726 28.1024 7.96977 28.2329C8.24228 28.3635 8.48551 28.5447 8.68558 28.7661C8.88565 28.9875 9.03863 29.2449 9.13579 29.5234C9.23295 29.802 9.2724 30.0963 9.25186 30.3896C9.2542 30.4945 9.25003 30.5995 9.23936 30.7039V30.7039Z" fill="#AA4628"/>
<path d="M13.0816 24H11.3764C10.5382 24.0008 9.70842 24.1683 8.93437 24.4931C8.16032 24.8178 7.45717 25.2933 6.86507 25.8925C6.27297 26.4916 5.80352 27.2027 5.48351 27.9851C5.1635 28.7676 4.9992 29.606 5 30.4525V31H20C20.0016 30.0813 19.8238 29.1714 19.4769 28.3221C19.1299 27.4729 18.6205 26.7012 17.978 26.051C17.3354 25.4008 16.5721 24.885 15.732 24.5331C14.8918 24.1811 13.9912 24 13.0816 24V24Z" fill="#21ABAB"/>
<path d="M28 71H54" stroke="#46407C" stroke-width="6" stroke-miterlimit="10"/>
<path d="M30 76L21 71.494L30 67V76Z" fill="#46407C"/>
<path d="M52 76L60 71.494L52 67V76Z" fill="#46407C"/>
<path d="M31.3725 62C31.2846 62 31.2025 61.8641 31.1204 61.5979C31.0543 61.3958 31.0149 61.1865 31.0032 60.9749C30.9931 60.8787 31.0071 60.7815 31.0442 60.6917L34.368 56.7271C34.663 56.415 34.8406 56.0159 34.8721 55.5944C34.8849 55.44 34.8603 55.285 34.8002 55.1414C34.7402 54.9979 34.6464 54.8699 34.5262 54.7675C34.302 54.5895 34.0192 54.495 33.729 54.5013C33.4623 54.4951 33.197 54.5413 32.9494 54.6372C32.7614 54.7177 32.5792 54.8104 32.4042 54.9147C32.3168 54.9771 32.217 55.0215 32.1111 55.045C32.0049 55.0391 31.9018 55.0081 31.8108 54.9548C31.7199 54.9015 31.6438 54.8274 31.5894 54.7391C31.4533 54.5783 31.3733 54.3801 31.3608 54.1728C31.3608 53.8216 31.6246 53.5384 32.1639 53.3232C32.7406 53.1049 33.3558 52.9972 33.9752 53.006C34.7446 52.9574 35.5028 53.2036 36.0855 53.6914C36.3374 53.9232 36.5351 54.2043 36.6655 54.5158C36.7959 54.8274 36.856 55.1623 36.8417 55.4981C36.8348 56.2571 36.5504 56.9894 36.0386 57.5653L33.5649 60.5161H36.6072C36.8652 60.5161 37 60.7257 37 61.1504V61.3657C37 61.7904 36.8652 62 36.6072 62H31.3725Z" fill="#46407C"/>
<path d="M39.1636 62.5259V57.7777C39.1743 57.2509 39.148 56.724 39.0848 56.2017C39.0474 56.0233 39.019 55.8427 39 55.6608C39 55.5072 39.1818 55.387 39.5514 55.3069C39.8223 55.2397 40.0981 55.1995 40.3755 55.1866C40.4973 55.1759 40.6197 55.1964 40.733 55.2468C40.7978 55.2911 40.8486 55.3564 40.8784 55.4337C40.9081 55.5011 40.9344 55.5702 40.9572 55.6408C40.9829 55.7327 41.0032 55.8264 41.0178 55.9212C41.0294 56.0002 41.0456 56.0783 41.0663 56.155C41.2998 55.8234 41.5927 55.5484 41.9267 55.3469C42.2799 55.1342 42.6756 55.0217 43.078 55.0197C43.4524 54.9594 43.8344 55.0383 44.1635 55.2439C44.4927 55.4495 44.7504 55.77 44.8959 56.155C45.1417 55.821 45.4469 55.546 45.7927 55.3469C46.1658 55.1287 46.5822 55.0163 47.0046 55.0197C47.2791 54.9942 47.5554 55.0341 47.8146 55.1367C48.0739 55.2392 48.3102 55.402 48.5073 55.6141C48.8676 56.1375 49.0402 56.789 48.9921 57.4438V62.5259C48.9921 62.8464 48.7194 63 48.1741 63H47.7923C47.253 63 46.9803 62.8464 46.9803 62.5259V57.7777C46.9803 57.1567 46.7137 56.8495 46.1744 56.8495C45.9383 56.8631 45.7109 56.9526 45.5204 57.1068C45.3298 57.2611 45.1843 57.4734 45.1019 57.7176V62.5259C45.1019 62.8464 44.8353 63 44.2899 63H43.9082C43.3628 63 43.0902 62.8464 43.0902 62.5259V57.7777C43.0902 57.1567 42.8235 56.8495 42.2903 56.8495C42.0542 56.8631 41.8268 56.9526 41.6362 57.1068C41.4457 57.2611 41.3002 57.4734 41.2178 57.7176V62.5259C41.2178 62.8464 40.9451 63 40.3997 63H40.0241C39.4363 62.9733 39.1636 62.8464 39.1636 62.5259Z" fill="#46407C"/>
</svg>
