<svg width="80" height="80" viewBox="0 0 80 80" fill="none" xmlns="http://www.w3.org/2000/svg">
<g clip-path="url(#clip0)">
<path d="M70 33.8313H11.25V80H70V33.8313Z" fill="#A2BCCB"/>
<path d="M80 36.775H0.1875L40.625 0L80 36.775Z" fill="#A2BCCB"/>
<path d="M20.9875 42.4563V33.3937C20.9875 33.0875 21.2687 32.9375 21.8375 32.9375H22.3312C22.9 32.9375 23.1812 33.0875 23.1812 33.3937V36.875H27.0062V33.3937C27.0062 33.0875 27.2875 32.9375 27.8562 32.9375H28.35C28.9187 32.9375 29.2 33.0875 29.2 33.3937V42.4563C29.2 42.7563 28.9187 42.9063 28.35 42.9063H27.8562C27.2875 42.9063 27.0062 42.7563 27.0062 42.4563V38.75H23.1812V42.45C23.1812 42.75 22.9 42.9 22.3312 42.9H21.8375C21.25 42.9063 20.9875 42.7563 20.9875 42.4563Z" fill="#21ABAB"/>
<path d="M31.9937 41.6813C31.1461 40.6226 30.7268 39.2843 30.8187 37.9313C30.7286 36.5784 31.1477 35.2408 31.9937 34.1812C32.4255 33.73 32.9508 33.3787 33.5328 33.152C34.1147 32.9252 34.7392 32.8286 35.3625 32.8688C35.9875 32.8225 36.615 32.9145 37.2004 33.1381C37.7859 33.3617 38.3149 33.7114 38.75 34.1625C39.5911 35.2243 40.0076 36.5608 39.9187 37.9125C40.0094 39.2644 39.5927 40.6015 38.75 41.6625C38.3194 42.1136 37.7952 42.4649 37.2143 42.6916C36.6334 42.9184 36.0098 43.0151 35.3875 42.975C34.7616 43.0213 34.1331 42.9294 33.5466 42.7058C32.9602 42.4823 32.43 42.1325 31.9937 41.6813ZM33.6437 40.3188C33.8506 40.5745 34.112 40.7809 34.4088 40.9226C34.7056 41.0643 35.0304 41.1379 35.3594 41.1379C35.6883 41.1379 36.0131 41.0643 36.3099 40.9226C36.6068 40.7809 36.8682 40.5745 37.075 40.3188C37.5073 39.5984 37.71 38.7634 37.6562 37.925C37.7115 37.0884 37.5087 36.255 37.075 35.5375C36.8669 35.2837 36.605 35.0793 36.3084 34.9389C36.0117 34.7985 35.6876 34.7257 35.3594 34.7257C35.0312 34.7257 34.707 34.7985 34.4104 34.9389C34.1137 35.0793 33.8519 35.2837 33.6437 35.5375C33.2048 36.2531 32.9995 37.0875 33.0562 37.925C33.0011 38.7644 33.2063 39.6003 33.6437 40.3188Z" fill="#21ABAB"/>
<path d="M41.5063 42.4563V33.3938C41.5063 33.0875 41.7938 32.9375 42.3563 32.9375H43.125C43.2946 32.9126 43.4678 32.9351 43.6255 33.0023C43.7832 33.0696 43.9193 33.1791 44.0188 33.3188L46.5188 37.75L49.0188 33.3188C49.1182 33.1791 49.2543 33.0696 49.412 33.0023C49.5697 32.9351 49.7429 32.9126 49.9125 32.9375H50.625C51.1875 32.9375 51.475 33.0875 51.475 33.3938V42.4563C51.475 42.7563 51.1875 42.9063 50.625 42.9063H50.2125C49.6438 42.9063 49.3625 42.7563 49.3625 42.4563V36.5938H49.3063L47.2563 40.2625C47.1908 40.3505 47.1046 40.4211 47.0055 40.4679C46.9063 40.5148 46.7971 40.5365 46.6875 40.5313H46.275C46.1659 40.5396 46.0566 40.5192 45.9579 40.472C45.8591 40.4249 45.7745 40.3526 45.7125 40.2625L43.6563 36.5938H43.6V42.4563C43.6 42.7563 43.3188 42.9063 42.75 42.9063H42.3375C41.7938 42.9063 41.5063 42.7563 41.5063 42.4563Z" fill="#21ABAB"/>
<path d="M53.4438 42.3125V33.5312C53.4332 33.4544 53.4407 33.3761 53.4657 33.3026C53.4906 33.2291 53.5323 33.1624 53.5875 33.1078C53.6427 33.0533 53.7098 33.0123 53.7836 32.9881C53.8574 32.964 53.9357 32.9574 54.0125 32.9687H59.1938C59.4813 32.9687 59.6188 33.2 59.6188 33.675V34.1125C59.6188 34.5875 59.4813 34.8187 59.1938 34.8187H55.625V36.875H58.8125C59.1 36.875 59.2375 37.1125 59.2375 37.5812V38.0187C59.2375 38.4937 59.1 38.7312 58.8125 38.7312H55.625V41.025H59.2125C59.4938 41.025 59.6375 41.2625 59.6375 41.7312V42.1687C59.6375 42.6437 59.4938 42.8812 59.2125 42.8812H54.0125C53.9354 42.8915 53.8569 42.8839 53.7832 42.859C53.7095 42.834 53.6426 42.7924 53.5876 42.7374C53.5326 42.6824 53.491 42.6155 53.466 42.5418C53.4411 42.4681 53.4335 42.3896 53.4438 42.3125Z" fill="#21ABAB"/>
<path d="M23.1687 30.2812C23.1645 30.248 23.1645 30.2144 23.1687 30.1812L23.5375 28.2312H23C22.75 28.2312 22.625 28.0187 22.625 27.6062V27.5C22.625 27.0812 22.75 26.875 23 26.875H23.8L24.0687 25.4812H23.4437C23.1937 25.4812 23.0687 25.275 23.0687 24.8562V24.7312C23.0687 24.3146 23.1937 24.1062 23.4437 24.1062H24.3062L24.6375 22.3125C24.6875 22.05 24.925 21.9187 25.3437 21.9187H25.5125C25.8875 21.9187 26.0812 22.0125 26.0812 22.1937C26.0861 22.2332 26.0861 22.2731 26.0812 22.3125L25.75 24.1062H26.9375L27.2687 22.3125C27.3187 22.05 27.5562 21.9187 27.9812 21.9187H28.125C28.5062 21.9187 28.6937 22.0125 28.6937 22.1937C28.6986 22.2332 28.6986 22.2731 28.6937 22.3125L28.3625 24.1062H28.7812C29.0375 24.1062 29.1625 24.3187 29.1625 24.7312V24.8562C29.1625 25.2812 29.0375 25.4812 28.7812 25.4812H28.125L27.8562 26.875H28.3875C28.6437 26.875 28.7687 27.0875 28.7687 27.5V27.6312C28.7687 28.05 28.6437 28.2562 28.3875 28.2562H27.6L27.2312 30.2062C27.1812 30.4687 26.95 30.6 26.5375 30.6H26.3687C25.9812 30.6 25.7875 30.5 25.7875 30.3062C25.7832 30.273 25.7832 30.2394 25.7875 30.2062L26.1562 28.2562H25L24.6375 30.2062C24.5875 30.4687 24.35 30.6 23.9375 30.6H23.75C23.3625 30.575 23.1687 30.475 23.1687 30.2812ZM25.2312 26.8375H26.4187L26.6875 25.4437H25.5L25.2312 26.8375Z" fill="#46407C"/>
<path d="M29.5625 29.5375C29.5866 29.277 29.6865 29.0293 29.85 28.825C30.0437 28.55 30.2125 28.4062 30.3437 28.4062C30.4618 28.4342 30.574 28.4829 30.675 28.55C31.1391 28.8256 31.6666 28.9764 32.2062 28.9875C33 28.9875 33.4 28.6812 33.4 28.0687C33.3976 27.9317 33.3615 27.7974 33.2951 27.6775C33.2286 27.5576 33.1337 27.4559 33.0188 27.3812C32.7362 27.1726 32.4273 27.0024 32.1 26.875C31.7353 26.7341 31.3785 26.5734 31.0313 26.3937C30.6596 26.1985 30.3451 25.9099 30.1187 25.5562C29.8512 25.1304 29.7184 24.6338 29.7375 24.1312C29.7234 23.6067 29.8839 23.0923 30.1938 22.6687C30.4956 22.2912 30.8852 21.9931 31.3285 21.8003C31.7718 21.6075 32.2555 21.5259 32.7375 21.5625C33.2988 21.5552 33.8558 21.6615 34.375 21.875C34.8125 22.0625 35.0312 22.2625 35.0312 22.5C35.0112 22.7484 34.9273 22.9874 34.7875 23.1937C34.6312 23.4687 34.475 23.6 34.3375 23.6C34.2554 23.5865 34.1767 23.5568 34.1062 23.5125C33.7369 23.3559 33.3386 23.2792 32.9375 23.2875C32.6125 23.2542 32.2859 23.3337 32.0125 23.5125C31.9293 23.5819 31.8627 23.669 31.8173 23.7673C31.7719 23.8657 31.7489 23.9729 31.75 24.0812C31.7566 24.2089 31.7949 24.3329 31.8614 24.442C31.928 24.5512 32.0207 24.642 32.1312 24.7062C32.4156 24.8985 32.7219 25.0558 33.0437 25.175C33.4101 25.3097 33.7671 25.4683 34.1125 25.65C34.4679 25.8392 34.7724 26.1116 35 26.4437C35.259 26.8502 35.3917 27.3244 35.3812 27.8062C35.3911 28.2706 35.306 28.7321 35.1312 29.1625C34.9891 29.5113 34.756 29.8156 34.4563 30.0437C33.8572 30.4656 33.1388 30.6846 32.4062 30.6687C31.7088 30.6893 31.0147 30.5637 30.3688 30.3C29.8375 30.0375 29.5625 29.7875 29.5625 29.5375Z" fill="#46407C"/>
<path d="M38.125 30.1687V23.3437H36.0937C35.8437 23.3437 35.7125 23.1312 35.7125 22.7187V22.325C35.7125 21.9 35.8437 21.7 36.0937 21.7H42.0813C42.3375 21.7 42.4625 21.9062 42.4625 22.325V22.7187C42.4625 23.1375 42.3375 23.3437 42.0813 23.3437H40.0687V30.1687C40.0687 30.4375 39.8187 30.575 39.3125 30.575H38.8687C38.3625 30.575 38.125 30.4375 38.125 30.1687Z" fill="#46407C"/>
<path d="M42.5625 30.2937C42.573 30.2175 42.5897 30.1422 42.6125 30.0687L45.4 21.9437C45.4688 21.7687 45.7063 21.6812 46.1188 21.6812H46.7813C47.1938 21.6812 47.4063 21.7687 47.5 21.9437L50.2875 30.0687C50.3111 30.1415 50.3238 30.2173 50.325 30.2937C50.325 30.4812 50.1125 30.575 49.7 30.575H49.1438C48.725 30.575 48.5188 30.4812 48.4313 30.3062L47.9188 28.75H44.9313L44.425 30.2937C44.3688 30.4687 44.1688 30.5625 43.8438 30.5625H43.3375C42.8187 30.575 42.5625 30.4812 42.5625 30.2937ZM45.475 27.0937H47.35L46.6313 24.8375L46.4375 24.025H46.3875C46.3422 24.2995 46.2795 24.5709 46.2 24.8375L45.475 27.0937Z" fill="#46407C"/>
<path d="M52.8937 30.1687V26.2937L50.3937 22.2312C50.329 22.1355 50.2863 22.0267 50.2687 21.9125C50.2687 21.7437 50.5375 21.6625 51.075 21.6625H51.625C52.0375 21.6625 52.2875 21.7375 52.3812 21.9L53.925 24.6125L55.4625 21.875C55.5562 21.7125 55.8125 21.6375 56.225 21.6375H56.6812C57.2125 21.6375 57.475 21.7187 57.475 21.8875C57.4651 22.0016 57.4264 22.1113 57.3625 22.2062L54.8625 26.3062V30.1437C54.8625 30.4125 54.6125 30.55 54.1062 30.55H53.675C53.125 30.575 52.8937 30.4375 52.8937 30.1687Z" fill="#46407C"/>
<path d="M46.25 53.75H33.75V77.5H46.25V53.75Z" fill="#1D7589"/>
<path d="M49.375 76.875H30.625V80H49.375V76.875Z" fill="#FFC298"/>
<path d="M36.875 66.875C37.5654 66.875 38.125 66.3154 38.125 65.625C38.125 64.9346 37.5654 64.375 36.875 64.375C36.1846 64.375 35.625 64.9346 35.625 65.625C35.625 66.3154 36.1846 66.875 36.875 66.875Z" fill="#FFC298"/>
<path d="M61.875 53.75H53.125V66.875H61.875V53.75Z" fill="white"/>
<path d="M26.875 53.75H18.125V66.875H26.875V53.75Z" fill="white"/>
</g>
<defs>
<clipPath id="clip0">
<rect width="80" height="80" fill="white"/>
</clipPath>
</defs>
</svg>
